<?xml version="1.0"?>
<!-- Created by MetaPost 2.00 on 2019.08.05:2116 -->
<svg version="1.1" xmlns="http://www.w3.org/2000/svg" xmlns:xlink="http://www.w3.org/1999/xlink" width="170.578705" height="170.578705" viewBox="0 0 170.578705 170.578705">
<!-- Original BoundingBox: -85.289352 -85.289352 85.289352 85.289352 -->
  <path d="M170.039352 85.000000C170.039352 62.445160,161.078140 40.816803,145.130676 24.869324C129.183197 8.921860,107.554840 -0.039352,85.000000 -0.039352C62.445160 -0.039352,40.816803 8.921860,24.869324 24.869324C8.921860 40.816803,-0.039352 62.445160,-0.039352 85.000000C-0.039352 107.554840,8.921860 129.183197,24.869324 145.130676C40.816803 161.078140,62.445160 170.039352,85.000000 170.039352C107.554840 170.039352,129.183197 161.078140,145.130676 145.130676C161.078140 129.183197,170.039352 107.554840,170.039352 85.000000Z" style="fill: rgb(100.000000%,39.999390%,39.999390%);stroke: none;"></path>
  <path d="M155.866135 85.000000C155.866135 66.204300,148.398453 48.180664,135.108887 34.891113C121.819336 21.601547,103.795700 14.133865,85.000000 14.133865C66.204300 14.133865,48.180664 21.601547,34.891113 34.891113C21.601547 48.180664,14.133865 66.204300,14.133865 85.000000C14.133865 103.795700,21.601547 121.819336,34.891113 135.108887C48.180664 148.398453,66.204300 155.866135,85.000000 155.866135C103.795700 155.866135,121.819336 148.398453,135.108887 135.108887C148.398453 121.819336,155.866135 103.795700,155.866135 85.000000Z" style="fill: rgb(100.000000%,100.000000%,100.000000%);stroke: none;"></path>
  <path d="M155.866135 85.000000C155.866135 66.204300,148.398453 48.180664,135.108887 34.891113C121.819336 21.601547,103.795700 14.133865,85.000000 14.133865C66.204300 14.133865,48.180664 21.601547,34.891113 34.891113C21.601547 48.180664,14.133865 66.204300,14.133865 85.000000C14.133865 103.795700,21.601547 121.819336,34.891113 135.108887C48.180664 148.398453,66.204300 155.866135,85.000000 155.866135C103.795700 155.866135,121.819336 148.398453,135.108887 135.108887C148.398453 121.819336,155.866135 103.795700,155.866135 85.000000Z" style="stroke:rgb(0.000000%,0.000000%,0.000000%); stroke-width: 0.500000;stroke-linecap: round;stroke-linejoin: round;stroke-miterlimit: 10.000000;fill: none;"></path>
  <path d="M170.039352 85.000000C170.039352 62.445160,161.078140 40.816803,145.130676 24.869324C129.183197 8.921860,107.554840 -0.039352,85.000000 -0.039352C62.445160 -0.039352,40.816803 8.921860,24.869324 24.869324C8.921860 40.816803,-0.039352 62.445160,-0.039352 85.000000C-0.039352 107.554840,8.921860 129.183197,24.869324 145.130676C40.816803 161.078140,62.445160 170.039352,85.000000 170.039352C107.554840 170.039352,129.183197 161.078140,145.130676 145.130676C161.078140 129.183197,170.039352 107.554840,170.039352 85.000000Z" style="stroke:rgb(0.000000%,0.000000%,0.000000%); stroke-width: 0.500000;stroke-linecap: round;stroke-linejoin: round;stroke-miterlimit: 10.000000;fill: none;"></path>
  <g transform="translate(87.099991 20.523331)" style="fill: rgb(0.000000%,0.000000%,0.000000%);">
    <text font-size="9.962646">r</text>
  </g>
  <g transform="translate(28.559814 12.033951)" style="fill: rgb(0.000000%,0.000000%,0.000000%);">
    <text font-size="9.962646">R</text>
  </g>
  <path d="M85.000000 85.000000L85.000000 14.133865" style="stroke:rgb(0.000000%,0.000000%,0.000000%); stroke-width: 0.500000;stroke-linecap: round;stroke-linejoin: round;stroke-miterlimit: 10.000000;fill: none;"></path>
  <path d="M86.530701 17.829224L85.000000 14.133865L83.469299 17.829224Z" style="stroke:rgb(0.000000%,0.000000%,0.000000%); stroke-width: 0.500000;fill: rgb(0.000000%,0.000000%,0.000000%);"></path>
  <path d="M85.000000 85.000000L37.993423 14.133942" style="stroke:rgb(0.000000%,0.000000%,0.000000%); stroke-width: 0.500000;stroke-linecap: round;stroke-linejoin: round;stroke-miterlimit: 10.000000;fill: none;"></path>
  <path d="M41.312210 16.367661L37.993423 14.133942L38.760605 18.060165Z" style="stroke:rgb(0.000000%,0.000000%,0.000000%); stroke-width: 0.500000;fill: rgb(0.000000%,0.000000%,0.000000%);"></path>
</svg>
