<?xml version="1.0"?>
<!-- Created by MetaPost 2.00 on 2019.08.05:2116 -->
<svg version="1.1" xmlns="http://www.w3.org/2000/svg" xmlns:xlink="http://www.w3.org/1999/xlink" width="226.772461" height="113.386230" viewBox="0 0 226.772461 113.386230">
<!-- Original BoundingBox: -113.386230 0.000000 113.386230 113.386230 -->
  <path d="M198.039352 113.000000C198.039352 90.445160,189.078140 68.816803,173.130676 52.869324C157.183197 36.921860,135.554840 27.960648,113.000000 27.960648C90.445160 27.960648,68.816803 36.921860,52.869324 52.869324C36.921860 68.816803,27.960648 90.445160,27.960648 113.000000C84.652679 113.000000,141.347321 113.000000,198.039352 113.000000Z" style="fill: rgb(100.000000%,39.999390%,39.999390%);stroke: none;"></path>
  <path d="M183.866135 113.000000C183.866135 94.204300,176.398453 76.180664,163.108887 62.891113C149.819336 49.601547,131.795700 42.133865,113.000000 42.133865C94.204300 42.133865,76.180664 49.601547,62.891113 62.891113C49.601547 76.180664,42.133865 94.204300,42.133865 113.000000C42.133865 131.795700,49.601547 149.819336,62.891113 163.108887C76.180664 176.398453,94.204300 183.866135,113.000000 183.866135C131.795700 183.866135,149.819336 176.398453,163.108887 163.108887C176.398453 149.819336,183.866135 131.795700,183.866135 113.000000Z" style="fill: rgb(100.000000%,100.000000%,100.000000%);stroke: none;"></path>
  <path d="M183.866135 113.000000C183.866135 94.204300,176.398453 76.180664,163.108887 62.891113C149.819336 49.601547,131.795700 42.133865,113.000000 42.133865C94.204300 42.133865,76.180664 49.601547,62.891113 62.891113C49.601547 76.180664,42.133865 94.204300,42.133865 113.000000" style="stroke:rgb(0.000000%,0.000000%,0.000000%); stroke-width: 0.500000;stroke-linecap: round;stroke-linejoin: round;stroke-miterlimit: 10.000000;fill: none;"></path>
  <path d="M198.039352 113.000000C198.039352 90.445160,189.078140 68.816803,173.130676 52.869324C157.183197 36.921860,135.554840 27.960648,113.000000 27.960648C90.445160 27.960648,68.816803 36.921860,52.869324 52.869324C36.921860 68.816803,27.960648 90.445160,27.960648 113.000000" style="stroke:rgb(0.000000%,0.000000%,0.000000%); stroke-width: 0.500000;stroke-linecap: round;stroke-linejoin: round;stroke-miterlimit: 10.000000;fill: none;"></path>
  <g transform="translate(116.000000 79.711670)" style="fill: rgb(0.000000%,0.000000%,0.000000%);">
    <text font-size="9.962646">r</text>
  </g>
  <g transform="translate(79.163086 80.970871)" style="fill: rgb(0.000000%,0.000000%,0.000000%);">
    <text font-size="9.962646">R</text>
  </g>
  <g transform="translate(91.979355 36.643234)" style="fill: rgb(0.000000%,0.000000%,0.000000%);">
    <text font-size="9.962646">t/2</text>
  </g>
  <path d="M113.000000 113.000000L113.000000 42.133865" style="stroke:rgb(0.000000%,0.000000%,0.000000%); stroke-width: 0.500000;stroke-linecap: round;stroke-linejoin: round;stroke-miterlimit: 10.000000;fill: none;"></path>
  <path d="M113.000000 113.000000L65.993423 42.133942" style="stroke:rgb(0.000000%,0.000000%,0.000000%); stroke-width: 0.500000;stroke-linecap: round;stroke-linejoin: round;stroke-miterlimit: 10.000000;fill: none;"></path>
  <path d="M113.000000 42.133865L65.993423 42.133942" style="stroke:rgb(0.000000%,0.000000%,0.000000%); stroke-width: 0.500000;stroke-linecap: round;stroke-linejoin: round;stroke-miterlimit: 10.000000;fill: none;"></path>
</svg>
