<?xml version="1.0"?>
<!-- Created by MetaPost 2.00 on 2020.04.09:2140 -->
<svg version="1.1" xmlns="http://www.w3.org/2000/svg" xmlns:xlink="http://www.w3.org/1999/xlink" width="155.839294" height="115.378326" viewBox="0 0 155.839294 115.378326">
<!-- Original BoundingBox: -73.896439 -57.689163 81.942856 57.689163 -->
  <defs>
    <g transform="scale(0.009963,0.009963)" id="GLYPHcmmi10_11">
      <path style="fill-rule: evenodd;" d="M477.000000 -236.000000C477.000000 -393.000000,384.000000 -442.000000,310.000000 -442.000000C173.000000 -442.000000,41.000000 -299.000000,41.000000 -158.000000C41.000000 -65.000000,101.000000 11.000000,203.000000 11.000000C266.000000 11.000000,338.000000 -12.000000,414.000000 -73.000000C427.000000 -20.000000,460.000000 11.000000,505.000000 11.000000C558.000000 11.000000,589.000000 -44.000000,589.000000 -60.000000C589.000000 -67.000000,583.000000 -70.000000,577.000000 -70.000000C570.000000 -70.000000,567.000000 -67.000000,564.000000 -60.000000C546.000000 -11.000000,510.000000 -11.000000,508.000000 -11.000000C477.000000 -11.000000,477.000000 -89.000000,477.000000 -113.000000C477.000000 -134.000000,477.000000 -136.000000,487.000000 -148.000000C581.000000 -266.000000,602.000000 -382.000000,602.000000 -383.000000C602.000000 -385.000000,601.000000 -393.000000,590.000000 -393.000000C580.000000 -393.000000,580.000000 -390.000000,575.000000 -372.000000C557.000000 -309.000000,524.000000 -233.000000,477.000000 -174.000000M410.000000 -99.000000C322.000000 -22.000000,245.000000 -11.000000,205.000000 -11.000000C145.000000 -11.000000,115.000000 -56.000000,115.000000 -120.000000C115.000000 -169.000000,141.000000 -277.000000,173.000000 -328.000000C220.000000 -401.000000,274.000000 -420.000000,309.000000 -420.000000C408.000000 -420.000000,408.000000 -289.000000,408.000000 -211.000000C408.000000 -174.000000,408.000000 -116.000000,410.000000 -99.000000"></path>
    </g>
    <g transform="scale(0.009963,0.009963)" id="GLYPHcmmi10_12">
      <path style="fill-rule: evenodd;" d="M575.000000 -569.000000C575.000000 -644.000000,520.000000 -706.000000,439.000000 -706.000000C381.000000 -706.000000,353.000000 -690.000000,318.000000 -664.000000C263.000000 -624.000000,208.000000 -527.000000,189.000000 -451.000000L30.000000 184.000000C29.000000 188.000000,34.000000 194.000000,42.000000 194.000000C50.000000 194.000000,53.000000 192.000000,54.000000 189.000000L124.000000 -87.000000C143.000000 -27.000000,187.000000 10.000000,260.000000 10.000000C333.000000 10.000000,408.000000 -25.000000,453.000000 -69.000000C501.000000 -115.000000,533.000000 -179.000000,533.000000 -253.000000C533.000000 -325.000000,496.000000 -377.000000,460.000000 -402.000000C518.000000 -435.000000,575.000000 -497.000000,575.000000 -569.000000M395.000000 -403.000000C382.000000 -398.000000,371.000000 -396.000000,347.000000 -396.000000C333.000000 -396.000000,313.000000 -395.000000,303.000000 -400.000000C305.000000 -410.000000,341.000000 -408.000000,352.000000 -408.000000C373.000000 -408.000000,382.000000 -408.000000,395.000000 -403.000000M519.000000 -592.000000C519.000000 -522.000000,481.000000 -450.000000,429.000000 -419.000000C402.000000 -429.000000,382.000000 -431.000000,352.000000 -431.000000C331.000000 -431.000000,275.000000 -432.000000,275.000000 -399.000000C274.000000 -371.000000,326.000000 -374.000000,344.000000 -374.000000C381.000000 -374.000000,396.000000 -375.000000,426.000000 -387.000000C464.000000 -351.000000,469.000000 -320.000000,470.000000 -274.000000C472.000000 -216.000000,448.000000 -141.000000,420.000000 -102.000000C381.000000 -48.000000,314.000000 -12.000000,257.000000 -12.000000C181.000000 -12.000000,143.000000 -70.000000,143.000000 -141.000000C143.000000 -151.000000,143.000000 -166.000000,148.000000 -185.000000L212.000000 -438.000000C234.000000 -524.000000,306.000000 -683.000000,426.000000 -683.000000C484.000000 -683.000000,519.000000 -652.000000,519.000000 -592.000000"></path>
    </g>
  </defs>
  <path d="M73.000000 0.307098L73.000000 113.692902" style="stroke:rgb(0.000000%,0.000000%,0.000000%); stroke-width: 1.992523;stroke-linecap: round;stroke-linejoin: round;stroke-miterlimit: 10.000000;fill: none;"></path>
  <path d="M16.307098 57.000000L129.692902 57.000000" style="stroke:rgb(0.000000%,0.000000%,0.000000%); stroke-width: 0.500000;stroke-linecap: round;stroke-dasharray: 3.000000 3.000000 ;stroke-linejoin: round;stroke-miterlimit: 10.000000;fill: none;"></path>
  <path d="M48.451462 71.172897C45.984818 66.900574,44.653549 62.019104,44.653549 57.000000" style="stroke:rgb(0.000000%,0.000000%,0.000000%); stroke-width: 0.500000;stroke-linecap: round;stroke-linejoin: round;stroke-miterlimit: 10.000000;fill: none;"></path>
  <g transform="translate(35.778992 67.124329)" style="fill: rgb(0.000000%,0.000000%,0.000000%);">
    <use xlink:href="#GLYPHcmmi10_11"></use>
  </g>
  <path d="M100.230865 49.126205C100.964554 51.663025,101.346451 54.311768,101.346451 57.000000" style="stroke:rgb(0.000000%,0.000000%,0.000000%); stroke-width: 0.500000;stroke-linecap: round;stroke-linejoin: round;stroke-miterlimit: 10.000000;fill: none;"></path>
  <g transform="translate(103.935547 54.897629)" style="fill: rgb(0.000000%,0.000000%,0.000000%);">
    <use xlink:href="#GLYPHcmmi10_12"></use>
  </g>
  <path d="M73.000000 57.000000L-0.646439 99.519684" style="stroke:rgb(0.000000%,0.000000%,0.000000%); stroke-width: 0.500000;stroke-linecap: round;stroke-linejoin: round;stroke-miterlimit: 10.000000;fill: none;"></path>
  <path d="M73.000000 57.000000L154.692856 33.378540" style="stroke:rgb(0.000000%,0.000000%,0.000000%); stroke-width: 0.500000;stroke-linecap: round;stroke-linejoin: round;stroke-miterlimit: 10.000000;fill: none;"></path>
  <path d="M151.567596 35.875870L154.692856 33.378540L150.717102 32.934464Z" style="stroke:rgb(0.000000%,0.000000%,0.000000%); stroke-width: 0.500000;fill: rgb(0.000000%,0.000000%,0.000000%);"></path>
</svg>
