<?xml version="1.0"?>
<!-- Created by MetaPost 2.00 on 2019.08.01:1338 -->
<svg version="1.1" xmlns="http://www.w3.org/2000/svg" xmlns:xlink="http://www.w3.org/1999/xlink" width="153.115967" height="97.256180" viewBox="0 0 153.115967 97.256180">
<!-- Original BoundingBox: -0.250000 -9.918503 152.865967 87.337677 -->
  <path d="M7.087051 4.643051L7.087051 40.282150L7.087128 40.282562C9.185928 46.069916,11.550278 51.762314,14.174088 57.341248C17.344559 64.082260,21.313034 70.931412,28.346024 73.286560C33.026016 74.852325,38.084488 73.972122,42.520111 71.792160C48.160339 69.019623,52.541885 64.385040,56.692032 59.679077C61.568848 54.151321,66.240189 48.448380,70.866135 42.708664C75.505035 36.953827,80.102859 31.157883,85.040222 25.656082C89.391495 20.807388,94.008774 16.187943,99.212143 12.264862C103.474747 9.053314,108.150436 6.313217,113.386230 5.249191C118.111649 4.288971,122.994949 4.762589,127.558167 6.313217C130.068329 7.165268,132.447968 8.328384,134.645218 9.766342C134.645599 9.766602,134.645203 9.767838,134.645203 9.767029L134.645203 4.643646C134.645203 4.642609,134.648041 4.643646,134.646210 4.643646L7.087051 4.643646C7.086441 4.643646,7.087051 4.641968,7.087051 4.643051Z" style="fill: rgb(100.000000%,39.999390%,39.999390%);stroke: none;"></path>
  <path d="M7.087051 87.000000L7.087051 4.643646L134.645203 4.643646L134.645203 87.000000Z" style="stroke:rgb(0.000000%,0.000000%,0.000000%); stroke-width: 0.500000;stroke-linecap: round;stroke-linejoin: round;stroke-miterlimit: 10.000000;fill: none;"></path>
  <g transform="translate(137.645203 7.134308)" style="fill: rgb(0.000000%,0.000000%,0.000000%);">
    <text font-size="9.962646">f(c)</text>
  </g>
  <path d="M134.645203 4.643646l0 0" style="stroke:rgb(0.000000%,0.000000%,0.000000%); stroke-width: 3.000000;stroke-linecap: round;stroke-linejoin: round;stroke-miterlimit: 10.000000;fill: none;"></path>
  <path d="M0.000000 87.000000L141.732254 87.000000" style="stroke:rgb(0.000000%,0.000000%,0.000000%); stroke-width: 0.500000;stroke-linecap: round;stroke-linejoin: round;stroke-miterlimit: 10.000000;fill: none;"></path>
  <path d="M138.035889 88.531128L141.732254 87.000000L138.035889 85.468872Z" style="stroke:rgb(0.000000%,0.000000%,0.000000%); stroke-width: 0.500000;fill: rgb(0.000000%,0.000000%,0.000000%);"></path>
  <path d="M0.000000 16.133865C3.222366 30.340408,7.973740 44.157654,14.174088 57.341248C17.344559 64.082260,21.313034 70.931412,28.346024 73.286560C33.026016 74.852325,38.084488 73.972122,42.520111 71.792160C48.160339 69.019623,52.541885 64.385040,56.692032 59.679077C61.568848 54.151321,66.240189 48.448380,70.866135 42.708664C75.505035 36.953827,80.102859 31.157883,85.040222 25.656082C89.391495 20.807388,94.008774 16.187943,99.212143 12.264862C103.474747 9.053314,108.150436 6.313217,113.386230 5.249191C118.111649 4.288971,122.994949 4.762589,127.558167 6.313217C133.107559 8.196899,138.018967 11.600937,141.732254 16.133865" style="stroke:rgb(0.000000%,0.000000%,0.000000%); stroke-width: 0.500000;stroke-linecap: round;stroke-linejoin: round;stroke-miterlimit: 10.000000;fill: none;"></path>
  <g transform="translate(4.596375 94.289474)" style="fill: rgb(0.000000%,0.000000%,0.000000%);">
    <text font-size="9.962646">a</text>
  </g>
  <g transform="translate(131.877792 96.918503)" style="fill: rgb(0.000000%,0.000000%,0.000000%);">
    <text font-size="9.962646">b</text>
  </g>
</svg>
