<?xml version="1.0"?>
<!-- Created by MetaPost 2.00 on 2019.07.09:2134 -->
<svg version="1.1" xmlns="http://www.w3.org/2000/svg" xmlns:xlink="http://www.w3.org/1999/xlink" width="165.660126" height="92.527023" viewBox="0 0 165.660126 92.527023">
<!-- Original BoundingBox: -11.687195 -9.918503 153.972931 82.608521 -->
  <g transform="translate(-0.687195 37.915558)" style="fill: rgb(0.000000%,0.000000%,0.000000%);">
    <text font-size="9.962646">f(a)</text>
  </g>
  <path d="M18.087051 35.424896l0 0" style="stroke:rgb(0.000000%,0.000000%,0.000000%); stroke-width: 3.000000;stroke-linecap: round;stroke-linejoin: round;stroke-miterlimit: 10.000000;fill: none;"></path>
  <g transform="translate(148.645203 7.614502)" style="fill: rgb(0.000000%,0.000000%,0.000000%);">
    <text font-size="9.962646">f(b)</text>
  </g>
  <path d="M145.645203 5.123840l0 0" style="stroke:rgb(0.000000%,0.000000%,0.000000%); stroke-width: 3.000000;stroke-linecap: round;stroke-linejoin: round;stroke-miterlimit: 10.000000;fill: none;"></path>
  <path d="M18.087051 82.000000L18.087051 35.424896L26.058624 53.987030L26.058624 82.000000Z" style="stroke:rgb(0.000000%,0.000000%,0.000000%); stroke-width: 0.500000;stroke-linecap: round;stroke-linejoin: round;stroke-miterlimit: 10.000000;fill: none;"></path>
  <path d="M26.058624 82.000000L26.058624 53.987030L34.030197 64.746277L34.030197 82.000000Z" style="stroke:rgb(0.000000%,0.000000%,0.000000%); stroke-width: 0.500000;stroke-linecap: round;stroke-linejoin: round;stroke-miterlimit: 10.000000;fill: none;"></path>
  <path d="M34.030197 82.000000L34.030197 64.746277L42.001770 69.108368L42.001770 82.000000Z" style="stroke:rgb(0.000000%,0.000000%,0.000000%); stroke-width: 0.500000;stroke-linecap: round;stroke-linejoin: round;stroke-miterlimit: 10.000000;fill: none;"></path>
  <path d="M42.001770 82.000000L42.001770 69.108368L49.973343 68.414154L49.973343 82.000000Z" style="stroke:rgb(0.000000%,0.000000%,0.000000%); stroke-width: 0.500000;stroke-linecap: round;stroke-linejoin: round;stroke-miterlimit: 10.000000;fill: none;"></path>
  <path d="M49.973343 82.000000L49.973343 68.414154L57.944916 63.863907L57.944916 82.000000Z" style="stroke:rgb(0.000000%,0.000000%,0.000000%); stroke-width: 0.500000;stroke-linecap: round;stroke-linejoin: round;stroke-miterlimit: 10.000000;fill: none;"></path>
  <path d="M57.944916 82.000000L57.944916 63.863907L65.916489 56.569244L65.916489 82.000000Z" style="stroke:rgb(0.000000%,0.000000%,0.000000%); stroke-width: 0.500000;stroke-linecap: round;stroke-linejoin: round;stroke-miterlimit: 10.000000;fill: none;"></path>
  <path d="M65.916489 82.000000L65.916489 56.569244L73.888062 47.550949L73.888062 82.000000Z" style="stroke:rgb(0.000000%,0.000000%,0.000000%); stroke-width: 0.500000;stroke-linecap: round;stroke-linejoin: round;stroke-miterlimit: 10.000000;fill: none;"></path>
  <path d="M73.888062 82.000000L73.888062 47.550949L81.859634 37.719482L81.859634 82.000000Z" style="stroke:rgb(0.000000%,0.000000%,0.000000%); stroke-width: 0.500000;stroke-linecap: round;stroke-linejoin: round;stroke-miterlimit: 10.000000;fill: none;"></path>
  <path d="M81.859634 82.000000L81.859634 37.719482L89.831207 27.872879L89.831207 82.000000Z" style="stroke:rgb(0.000000%,0.000000%,0.000000%); stroke-width: 0.500000;stroke-linecap: round;stroke-linejoin: round;stroke-miterlimit: 10.000000;fill: none;"></path>
  <path d="M89.831207 82.000000L89.831207 27.872879L97.802780 18.726974L97.802780 82.000000Z" style="stroke:rgb(0.000000%,0.000000%,0.000000%); stroke-width: 0.500000;stroke-linecap: round;stroke-linejoin: round;stroke-miterlimit: 10.000000;fill: none;"></path>
  <path d="M97.802780 82.000000L97.802780 18.726974L105.774368 10.880844L105.774368 82.000000Z" style="stroke:rgb(0.000000%,0.000000%,0.000000%); stroke-width: 0.500000;stroke-linecap: round;stroke-linejoin: round;stroke-miterlimit: 10.000000;fill: none;"></path>
  <path d="M105.774368 82.000000L105.774368 10.880844L113.745941 4.838364L113.745941 82.000000Z" style="stroke:rgb(0.000000%,0.000000%,0.000000%); stroke-width: 0.500000;stroke-linecap: round;stroke-linejoin: round;stroke-miterlimit: 10.000000;fill: none;"></path>
  <path d="M113.745941 82.000000L113.745941 4.838364L121.717514 0.993149L121.717514 82.000000Z" style="stroke:rgb(0.000000%,0.000000%,0.000000%); stroke-width: 0.500000;stroke-linecap: round;stroke-linejoin: round;stroke-miterlimit: 10.000000;fill: none;"></path>
  <path d="M121.717514 82.000000L121.717514 0.993149L129.689087 -0.358521L129.689087 82.000000Z" style="stroke:rgb(0.000000%,0.000000%,0.000000%); stroke-width: 0.500000;stroke-linecap: round;stroke-linejoin: round;stroke-miterlimit: 10.000000;fill: none;"></path>
  <path d="M129.689087 82.000000L129.689087 -0.358521L137.660660 0.990982L137.660660 82.000000Z" style="stroke:rgb(0.000000%,0.000000%,0.000000%); stroke-width: 0.500000;stroke-linecap: round;stroke-linejoin: round;stroke-miterlimit: 10.000000;fill: none;"></path>
  <path d="M137.660660 82.000000L137.660660 0.990982L145.632233 5.117340L145.632233 82.000000Z" style="stroke:rgb(0.000000%,0.000000%,0.000000%); stroke-width: 0.500000;stroke-linecap: round;stroke-linejoin: round;stroke-miterlimit: 10.000000;fill: none;"></path>
  <path d="M11.000000 82.000000L152.732254 82.000000" style="stroke:rgb(0.000000%,0.000000%,0.000000%); stroke-width: 0.500000;stroke-linecap: round;stroke-linejoin: round;stroke-miterlimit: 10.000000;fill: none;"></path>
  <path d="M149.035889 83.531128L152.732254 82.000000L149.035889 80.468872Z" style="stroke:rgb(0.000000%,0.000000%,0.000000%); stroke-width: 0.500000;fill: rgb(0.000000%,0.000000%,0.000000%);"></path>
  <path d="M11.000000 11.133865C14.222366 25.340408,18.973740 39.157654,25.174088 52.341248C28.344559 59.082260,32.313034 65.931412,39.346024 68.286560C44.026016 69.852325,49.084488 68.972122,53.520111 66.792160C59.160339 64.019623,63.541885 59.385040,67.692032 54.679077C72.568848 49.151321,77.240189 43.448380,81.866135 37.708664C86.505035 31.953827,91.102859 26.157883,96.040222 20.656082C100.391495 15.807388,105.008774 11.187943,110.212143 7.264862C114.474747 4.053314,119.150436 1.313217,124.386230 0.249191C129.111649 -0.711029,133.994949 -0.237411,138.558167 1.313217C144.107559 3.196899,149.018967 6.600937,152.732254 11.133865" style="stroke:rgb(0.000000%,0.000000%,0.000000%); stroke-width: 0.500000;stroke-linecap: round;stroke-linejoin: round;stroke-miterlimit: 10.000000;fill: none;"></path>
  <g transform="translate(15.596375 89.289474)" style="fill: rgb(0.000000%,0.000000%,0.000000%);">
    <text font-size="9.962646">a</text>
  </g>
  <g transform="translate(142.877792 91.918503)" style="fill: rgb(0.000000%,0.000000%,0.000000%);">
    <text font-size="9.962646">b</text>
  </g>
</svg>
